<svg width="800" height="360" viewBox="0 0 800 360" xmlns="http://www.w3.org/2000/svg" role="img" aria-label="オシロスコープの波形画像">
  <rect width="800" height="360" fill="#0f172a"/>
  <rect x="18" y="18" width="764" height="324" rx="12" fill="#111827" stroke="#1e293b"/>
  <g stroke="#334155" stroke-width="1">
    <line x1="50" y1="90" x2="750" y2="90"/>
    <line x1="50" y1="150" x2="750" y2="150"/>
    <line x1="50" y1="210" x2="750" y2="210"/>
    <line x1="50" y1="270" x2="750" y2="270"/>
  </g>
  <text x="40" y="38" fill="#94a3b8" font-size="18" font-family="Arial, sans-serif">OSCILLOSCOPE ADY-900</text>
  <path d="M50 210
           C90 210, 110 180, 140 180
           S210 240, 240 240
           S330 180, 360 180
           S450 240, 480 240
           S570 180, 600 180
           S690 240, 720 240
           S780 210, 750 210"
        fill="none" stroke="#22c55e" stroke-width="4" stroke-linecap="round"/>
  <path d="M50 210 C90 210, 110 180, 140 180 S210 240, 240 240 S330 180, 360 180 S450 240, 480 240 S570 180, 600 180 S690 240, 720 240 S780 210, 750 210" fill="none" stroke="#86efac" stroke-width="1.5" stroke-dasharray="6 8" opacity="0.5"/>
  <text x="300" y="335" fill="#64748b" font-size="16" font-family="Arial, sans-serif">採用した異種ダイナモの安定した出力波形</text>
</svg>